HIERARCHY
ROOT Hips
{
	OFFSET 0.000000 0.000000 0.000000
	CHANNELS 6 Xposition Yposition Zposition Zrotation Yrotation Xrotation 
	JOINT LHipJoint
	{
		OFFSET 0.000000 0.000000 0.000000
		CHANNELS 3 Zrotation Yrotation Xrotation
		JOINT LeftUpLeg
		{
			OFFSET 1.363060 -1.794630 0.839290
			CHANNELS 3 Zrotation Yrotation Xrotation
			JOINT LeftLeg
			{
				OFFSET 2.448110 -6.726130 0.000000
				CHANNELS 3 Zrotation Yrotation Xrotation
				JOINT LeftFoot
				{
					OFFSET 2.562200 -7.039590 0.000000
					CHANNELS 3 Zrotation Yrotation Xrotation
					JOINT LeftToeBase
					{
						OFFSET 0.157640 -0.433110 2.322550
						CHANNELS 3 Zrotation Yrotation Xrotation
						End Site
						{
							OFFSET 0.000000 0.000000 0.000000
						}
					}
				}
			}
		}
	}
	JOINT RHipJoint
	{
		OFFSET 0.000000 0.000000 0.000000
		CHANNELS 3 Zrotation Yrotation Xrotation
		JOINT RightUpLeg
		{
			OFFSET -1.305520 -1.794630 0.839290
			CHANNELS 3 Zrotation Yrotation Xrotation
			JOINT RightLeg
			{
				OFFSET -2.542530 -6.985550 0.000000
				CHANNELS 3 Zrotation Yrotation Xrotation
				JOINT RightFoot
				{
					OFFSET -2.568260 -7.056230 0.000000
					CHANNELS 3 Zrotation Yrotation Xrotation
					JOINT RightToeBase
					{
						OFFSET -0.164730 -0.452590 2.363150
						CHANNELS 3 Zrotation Yrotation Xrotation
						End Site
						{
							OFFSET 0.000000 0.000000 0.000000
						}
					}
				}
			}
		}
	}
	JOINT LowerBack
	{
		OFFSET 0.000000 0.000000 0.000000
		CHANNELS 3 Zrotation Yrotation Xrotation
		JOINT Spine
		{
			OFFSET 0.028270 2.035590 -0.193380
			CHANNELS 3 Zrotation Yrotation Xrotation
			JOINT Spine1
			{
				OFFSET 0.056720 2.048850 -0.042750
				CHANNELS 3 Zrotation Yrotation Xrotation
				JOINT Neck
				{
					OFFSET 0.000000 0.000000 0.000000
					CHANNELS 3 Zrotation Yrotation Xrotation
					JOINT Neck1
					{
						OFFSET -0.054170 1.746240 0.172020
						CHANNELS 3 Zrotation Yrotation Xrotation
						JOINT Head
						{
							OFFSET 0.104070 1.761360 -0.123970
							CHANNELS 3 Zrotation Yrotation Xrotation
							End Site
							{
								OFFSET 0.000000 0.000000 0.000000
							}
						}
					}
				}
				JOINT LeftShoulder
				{
					OFFSET 0.000000 0.000000 0.000000
					CHANNELS 3 Zrotation Yrotation Xrotation
					JOINT LeftArm
					{
						OFFSET 3.362410 1.200890 -0.311210
						CHANNELS 3 Zrotation Yrotation Xrotation
						JOINT LeftForeArm
						{
							OFFSET 4.983000 -0.000000 -0.000000
							CHANNELS 3 Zrotation Yrotation Xrotation
							JOINT LeftHand
							{
								OFFSET 3.483560 -0.000000 -0.000000
								CHANNELS 3 Zrotation Yrotation Xrotation
								JOINT LeftFingerBase
								{
									OFFSET 0.000000 0.000000 0.000000
									CHANNELS 3 Zrotation Yrotation Xrotation
									JOINT LeftHandIndex1
									{
										OFFSET 0.715260 -0.000000 -0.000000
										CHANNELS 3 Zrotation Yrotation Xrotation
										End Site
										{
											OFFSET 0.000000 0.000000 0.000000
										}
									}
								}
								JOINT LThumb
								{
									OFFSET 0.000000 0.000000 0.000000
									CHANNELS 3 Zrotation Yrotation Xrotation
									End Site
									{
										OFFSET 0.000000 0.000000 0.000000
									}
								}
							}
						}
					}
				}
				JOINT RightShoulder
				{
					OFFSET 0.000000 0.000000 0.000000
					CHANNELS 3 Zrotation Yrotation Xrotation
					JOINT RightArm
					{
						OFFSET -3.136600 1.374050 -0.404650
						CHANNELS 3 Zrotation Yrotation Xrotation
						JOINT RightForeArm
						{
							OFFSET -5.241900 -0.000000 -0.000000
							CHANNELS 3 Zrotation Yrotation Xrotation
							JOINT RightHand
							{
								OFFSET -3.444170 -0.000000 -0.000000
								CHANNELS 3 Zrotation Yrotation Xrotation
								JOINT RightFingerBase
								{
									OFFSET 0.000000 0.000000 0.000000
									CHANNELS 3 Zrotation Yrotation Xrotation
									JOINT RightHandIndex1
									{
										OFFSET -0.622530 -0.000000 -0.000000
										CHANNELS 3 Zrotation Yrotation Xrotation
										End Site
										{
											OFFSET 0.000000 0.000000 0.000000
										}
									}
								}
								JOINT RThumb
								{
									OFFSET 0.000000 0.000000 0.000000
									CHANNELS 3 Zrotation Yrotation Xrotation
									End Site
									{
										OFFSET 0.000000 0.000000 0.000000
									}
								}
							}
						}
					}
				}
			}
		}
	}
}
MOTION
Frames: 7
Frame Time: 0.008333
-5.025501 17.545414 46.969657 -178.559587 3.387494 -162.163955 11.004856 -1.904027 -5.351597 -20.960301 -16.182214 -14.286255 -6.266172 7.626539 12.897738 -3.926897 16.526115 13.599061 0.388000 -4.000000 -11.076700 -11.483301 2.585637 -5.028672 19.707907 23.999964 -20.347609 4.976491 -12.985389 21.746955 2.246259 -11.630838 7.854424 -0.461700 4.358700 -12.088100 -1.197090 1.934747 -12.206076 0.402070 3.776497 -4.938600 -2.842688 2.660125 3.810979 0.035984 5.703884 -17.577085 3.932744 7.065095 10.381717 -1.569400 3.350400 12.120300 -4.812977 -8.422437 -2.562129 -76.896914 6.243309 36.397179 14.085636 -18.979653 -3.850501 -2.485709 -3.196315 -47.918002 25.257083 -4.759386 -2.412000 -7.125000 0.000000 0.000000 1.997800 25.047200 -0.964700 7.795220 9.592325 -1.302857 74.449842 -0.125143 31.877198 -22.514659 25.505278 -7.086214 1.358228 1.496803 -5.801985 -18.645903 -13.165278 5.236800 7.125000 0.000000 0.000000 6.862800 -45.230900 -0.039300 
-5.037685 17.543022 46.976261 -178.528410 3.282571 -162.101826 11.040862 -1.942619 -5.367821 -20.940796 -16.214533 -14.560324 -6.247179 7.773576 13.150426 -3.875312 16.419631 13.614881 0.405400 -4.087500 -11.323100 -11.499063 2.613380 -5.038281 19.664659 24.055917 -20.414337 4.968539 -13.013136 21.761961 2.318042 -11.804667 7.793989 -0.468000 4.387700 -12.170100 -1.238544 1.939380 -12.120975 0.390062 3.795251 -4.934646 -2.850013 2.664304 3.818462 -0.046325 5.685718 -17.661306 3.910343 7.077279 10.322134 -1.548300 3.345200 12.108200 -4.819481 -8.409433 -2.571490 -76.891332 6.307839 35.992713 14.202592 -19.132936 -3.912318 -2.458317 -3.277785 -48.738076 25.437647 -4.667627 -2.372900 -7.125000 0.000000 0.000000 2.174400 25.161400 -1.044300 7.819168 9.578426 -1.312136 74.382994 -0.332505 31.733640 -22.014216 25.027924 -6.811139 1.396743 1.506181 -5.790150 -18.602505 -13.323132 5.291500 7.125000 0.000000 0.000000 6.901600 -45.396700 -0.067900 
-5.050097 17.540290 46.983207 -178.482254 3.161624 -162.043390 11.079856 -1.983163 -5.383361 -20.902793 -16.268164 -14.847410 -6.223713 7.936757 13.435194 -3.825588 16.311229 13.614034 0.420700 -4.162900 -11.535300 -11.514594 2.639696 -5.048783 19.643648 24.092098 -20.476381 4.962359 -13.036238 21.772556 2.386350 -11.969108 7.735747 -0.473400 4.412900 -12.241300 -1.263382 1.946198 -12.020927 0.377182 3.814086 -4.931017 -2.872953 2.667608 3.821209 -0.110162 5.668476 -17.749851 3.887999 7.084442 10.262773 -1.530700 3.339700 12.100000 -4.828503 -8.401562 -2.577993 -76.854325 6.347606 35.627610 14.306713 -19.267580 -3.967578 -2.453847 -3.335390 -49.313967 25.670647 -4.662690 -2.395300 -7.125000 0.000000 0.000000 2.382600 25.156900 -1.144700 7.844720 9.568246 -1.322587 74.331499 -0.538563 31.552574 -21.498924 24.531356 -6.533437 1.436288 1.517806 -5.765196 -18.539690 -13.503111 5.349400 7.125000 0.000000 0.000000 6.963300 -45.585700 -0.101200 
-5.062736 17.537101 46.990609 -178.420287 3.024596 -161.990522 11.120852 -2.025815 -5.398689 -20.845105 -16.344004 -15.144797 -6.195281 8.115758 13.751884 -3.776989 16.200379 13.600691 0.433600 -4.225700 -11.712500 -11.531450 2.664027 -5.060267 19.647327 24.114992 -20.530046 4.957995 -13.054407 21.778193 2.453485 -12.129802 7.677750 -0.478100 4.434400 -12.302000 -1.276441 1.950582 -11.911954 0.368086 3.823326 -4.926592 -2.884525 2.666445 3.824753 -0.186170 5.645854 -17.829976 3.870093 7.087654 10.200553 -1.507900 3.331700 12.084300 -4.840996 -8.396080 -2.582775 -76.816701 6.360827 35.277816 14.393968 -19.378289 -4.013684 -2.469481 -3.369763 -49.637082 25.933946 -4.727470 -2.466900 -7.125000 0.000000 0.000000 2.604500 25.057900 -1.257500 7.873895 9.561028 -1.331174 74.269172 -0.739812 31.348507 -20.964328 24.010323 -6.251760 1.478608 1.531649 -5.714770 -18.469640 -13.713335 5.417000 7.125000 0.000000 0.000000 7.037400 -45.807700 -0.141000 
-5.075376 17.533343 46.998352 -178.337713 2.870313 -161.941210 11.164111 -2.070485 -5.413850 -20.762041 -16.443421 -15.451414 -6.161643 8.309275 14.097721 -3.730122 16.088967 13.576136 0.444900 -4.279800 -11.865100 -11.549273 2.686259 -5.072510 19.680974 24.124276 -20.576202 4.955848 -13.067964 21.779018 2.518954 -12.285118 7.617707 -0.482900 4.455900 -12.363100 -1.269560 1.956842 -11.791776 0.360438 3.828440 -4.921171 -2.902747 2.662411 3.834136 -0.246104 5.628305 -17.925233 3.849649 7.094272 10.138033 -1.489900 3.326500 12.075200 -4.854420 -8.395052 -2.584842 -76.757135 6.345324 34.967928 14.468815 -19.471136 -4.053087 -2.497329 -3.381903 -49.717680 26.187147 -4.832127 -2.564200 -7.125000 0.000000 0.000000 2.807900 24.906400 -1.365800 7.908714 9.558065 -1.339463 74.212667 -0.919296 31.098163 -20.398056 23.450526 -5.960253 1.526754 1.544043 -5.614311 -18.417615 -13.942922 5.497300 7.125000 0.000000 0.000000 7.096000 -46.051500 -0.185100 
-5.088129 17.529130 47.006323 -178.236841 2.700323 -161.896306 11.209179 -2.116676 -5.428840 -20.657621 -16.562244 -15.764900 -6.123116 8.515283 14.468197 -3.686144 15.979683 13.539301 0.455400 -4.329100 -12.004300 -11.568335 2.706432 -5.085167 19.740913 24.125161 -20.613463 4.955406 -13.077269 21.774822 2.586249 -12.443982 7.556393 -0.486900 4.474400 -12.415300 -1.251737 1.961129 -11.663143 0.355752 3.825361 -4.915104 -2.911568 2.654701 3.842283 -0.311847 5.604001 -18.008113 3.830067 7.091953 10.073757 -1.471800 3.317000 12.058700 -4.870260 -8.396150 -2.584975 -76.687276 6.314781 34.700390 14.532166 -19.548703 -4.086679 -2.531266 -3.377876 -49.576065 26.420116 -4.933719 -2.657800 -7.125000 0.000000 0.000000 2.988700 24.760200 -1.464100 7.947822 9.557517 -1.346239 74.153992 -1.083708 30.805706 -19.803509 22.854544 -5.661507 1.578884 1.553155 -5.465516 -18.375693 -14.168612 5.579000 7.125000 0.000000 0.000000 7.142300 -46.290200 -0.228600 
-5.100655 17.524462 47.014749 -178.119434 2.513886 -161.852849 11.256190 -2.164687 -5.444002 -20.529612 -16.697783 -16.087581 -6.080930 8.730073 14.856012 -3.641394 15.860992 13.481620 0.460900 -4.354800 -12.077100 -11.589089 2.725495 -5.098749 19.824676 24.119414 -20.647807 4.956513 -13.083898 21.766005 2.656848 -12.611350 7.495097 -0.491300 4.494100 -12.471100 -1.221953 1.964125 -11.528326 0.353638 3.815169 -4.907862 -2.916626 2.643103 3.860527 -0.372340 5.580326 -18.109153 3.807253 7.091172 10.010583 -1.457100 3.308000 12.049500 -4.887140 -8.400868 -2.583276 -76.601901 6.254474 34.479481 14.581159 -19.606528 -4.112633 -2.572161 -3.358689 -49.226909 26.640646 -5.030882 -2.748100 -7.125000 0.000000 0.000000 3.154000 24.619100 -1.555600 7.992888 9.561529 -1.351874 74.092629 -1.218776 30.466999 -19.181309 22.221283 -5.356417 1.634534 1.554899 -5.270276 -18.353450 -14.356707 5.651800 7.125000 0.000000 0.000000 7.159200 -46.486000 -0.263900 
